# xmcd
#
# Track frame offsets: 
#        150
#        14454
#        28990
#        42517
#        66322
#        83263
#        113243
#        134452
#        185777
#        200077
#        241881
#        270601
#        287484
#        321878
#
# Disc length: 4616 seconds
#
# Revision: 1
# Processed by: cddbd v1.5.2PL0 Copyright (c) Steve Scherf et al.
# Submitted via: ExactAudioCopy v0.99pb4
#
DISCID=d012060e
DTITLE=Thelonious Monk - The Measure Of Monk
DYEAR=2007
DGENRE=Jazz
TTITLE0=Ruby My Dear
TTITLE1='Round Midnght
TTITLE2=Straight, No Chaser
TTITLE3=Nutty
TTITLE4=Solitude
TTITLE5=Trinkle, Tinkle
TTITLE6=Crepuscule With Nellie (Take 2)
TTITLE7=Well You Needn't
TTITLE8=Epistrophy
TTITLE9=Let's Cool One
TTITLE10=I Mean You (Take 1, Alternate)
TTITLE11=Ask Me Now (Take 3)
TTITLE12=Ugly Beauty (Take 4)
TTITLE13=Bye-Ya
EXTD=YEAR: 2007
EXTT0=
EXTT1=
EXTT2=
EXTT3=
EXTT4=
EXTT5=
EXTT6=
EXTT7=
EXTT8=
EXTT9=
EXTT10=
EXTT11=
EXTT12=
EXTT13=
PLAYORDER=
